<svg version="1.1" id="Layer_1" xmlns="http://www.w3.org/2000/svg" xmlns:xlink="http://www.w3.org/1999/xlink" x="0px" y="0px"
	 width="100%" viewBox="0 0 184 185" enable-background="new 0 0 184 185" xml:space="preserve">
<path fill="#000000" opacity="1.000000" stroke="none" 
	d="
M185.000000,73.000000 
	C185.000000,111.000000 185.000000,148.500000 185.000000,186.000000 
	C123.666664,186.000000 62.333332,186.000000 1.000000,186.000000 
	C1.000000,124.333336 1.000000,62.666668 1.000000,1.000000 
	C62.333332,1.000000 123.666664,1.000000 185.000000,1.000000 
	C185.000000,24.833334 185.000000,48.666668 185.000000,73.000000 
M143.984116,72.889076 
	C141.333801,57.300007 134.014252,44.458527 122.325851,33.699215 
	C104.303696,17.109591 83.333092,13.462890 60.448029,19.177073 
	C47.277020,22.465750 37.072472,30.767141 28.181816,41.104046 
	C18.771833,52.044762 14.211162,64.709579 13.146998,78.623314 
	C12.024863,93.295029 16.369774,106.725388 24.910765,118.760468 
	C38.403572,137.773148 56.787239,147.720200 80.094368,147.900269 
	C92.278847,147.994400 103.498077,143.968430 113.746323,137.495789 
	C117.582649,135.072815 120.417740,135.676498 123.352036,138.820206 
	C129.923935,145.861176 136.587921,152.817230 143.278061,159.746384 
	C146.472977,163.055435 149.563171,166.542419 153.158310,169.366333 
	C156.676575,172.129852 164.983734,171.634048 168.272507,169.134644 
	C175.461594,163.671097 178.017471,157.686996 176.210693,151.372452 
	C174.197815,144.337677 168.161972,141.114868 163.036011,137.051346 
	C154.880844,130.586472 146.517197,124.380470 138.482132,117.772675 
	C137.278290,116.782669 136.379761,113.673248 137.033005,112.443893 
	C143.505569,100.263084 144.817459,87.253334 143.984116,72.889076 
z"/>
<path fill="#2A476A" opacity="1.000000" stroke="none" 
	d="
M143.989075,73.351730 
	C144.817459,87.253334 143.505569,100.263084 137.033005,112.443893 
	C136.379761,113.673248 137.278290,116.782669 138.482132,117.772675 
	C146.517197,124.380470 154.880844,130.586472 163.036011,137.051346 
	C168.161972,141.114868 174.197815,144.337677 176.210693,151.372452 
	C178.017471,157.686996 175.461594,163.671097 168.272507,169.134644 
	C164.983734,171.634048 156.676575,172.129852 153.158310,169.366333 
	C149.563171,166.542419 146.472977,163.055435 143.278061,159.746384 
	C136.587921,152.817230 129.923935,145.861176 123.352036,138.820206 
	C120.417740,135.676498 117.582649,135.072815 113.746323,137.495789 
	C103.498077,143.968430 92.278847,147.994400 80.094368,147.900269 
	C56.787239,147.720200 38.403572,137.773148 24.910765,118.760468 
	C16.369774,106.725388 12.024863,93.295029 13.146998,78.623314 
	C14.211162,64.709579 18.771833,52.044762 28.181816,41.104046 
	C37.072472,30.767141 47.277020,22.465750 60.448029,19.177073 
	C83.333092,13.462890 104.303696,17.109591 122.325851,33.699215 
	C134.014252,44.458527 141.333801,57.300007 143.989075,73.351730 
M124.304771,136.697998 
	C133.040710,145.831772 141.724960,155.015884 150.542572,164.070114 
	C153.361130,166.964310 156.577713,169.392136 161.883636,168.048981 
	C167.948975,168.006027 171.320480,164.426193 173.164108,159.148666 
	C175.046753,153.759384 173.387863,148.267441 168.514359,144.456619 
	C158.151443,136.353409 147.815430,128.194595 137.111328,120.559120 
	C132.636703,117.367279 132.425827,114.990173 134.733658,110.066116 
	C145.722290,86.620522 144.036301,63.765041 127.855286,43.388618 
	C112.169853,23.636261 91.258507,15.922440 65.514473,21.199080 
	C64.954216,21.446991 64.393967,21.694902 63.311218,22.043562 
	C62.962555,22.108828 62.613892,22.174093 61.463291,22.189291 
	C46.012920,26.149649 34.288296,35.301743 25.947233,48.627392 
	C1.062814,88.382645 26.467226,135.945053 66.613777,143.614670 
	C82.998955,146.745682 98.450684,144.129318 112.317505,134.910370 
	C117.243027,131.635803 120.478477,131.759003 124.304771,136.697998 
z"/>
<path fill="#4BA686" opacity="1.000000" stroke="none" 
	d="
M62.265228,22.239359 
	C62.613892,22.174093 62.962555,22.108828 63.880955,21.957912 
	C65.010117,21.627365 65.569550,21.382467 66.128975,21.137569 
	C91.258507,15.922440 112.169853,23.636261 127.855286,43.388618 
	C144.036301,63.765041 145.722290,86.620522 134.733658,110.066116 
	C132.425827,114.990173 132.636703,117.367279 137.111328,120.559120 
	C147.815430,128.194595 158.151443,136.353409 168.514359,144.456619 
	C173.387863,148.267441 175.046753,153.759384 173.164108,159.148666 
	C171.320480,164.426193 167.948975,168.006027 161.305161,167.724701 
	C155.724152,162.238098 150.721634,157.075790 145.752014,151.563156 
	C142.651733,145.344864 139.035690,139.981277 131.930450,137.801071 
	C129.704803,133.839951 126.558022,136.519394 123.925766,136.169296 
	C120.478477,131.759003 117.243027,131.635803 112.317505,134.910370 
	C98.450684,144.129318 82.998955,146.745682 66.048248,143.149002 
	C62.442097,141.019836 59.314011,139.496506 56.378540,137.664520 
	C49.654358,133.468109 42.886391,129.272095 39.390511,121.910919 
	C41.199230,123.018883 42.683586,124.075294 44.110657,125.204124 
	C63.356297,140.427704 89.586304,141.520554 109.806244,127.929581 
	C129.669678,114.578217 138.589905,89.689995 131.845291,66.438660 
	C120.398346,26.976660 72.622467,14.067417 40.833969,41.427677 
	C42.914642,38.350101 44.574879,35.207615 47.105782,33.121368 
	C51.894867,29.173683 57.183914,25.832527 62.265228,22.239359 
z"/>
<path fill="#3B8165" opacity="1.000000" stroke="none" 
	d="
M39.039509,121.893028 
	C42.886391,129.272095 49.654358,133.468109 56.378540,137.664520 
	C59.314011,139.496506 62.442097,141.019836 65.699348,142.959824 
	C26.467226,135.945053 1.062814,88.382645 25.947233,48.627392 
	C34.288296,35.301743 46.012920,26.149649 61.864258,22.214325 
	C57.183914,25.832527 51.894867,29.173683 47.105782,33.121368 
	C44.574879,35.207615 42.914642,38.350101 40.742287,41.557274 
	C40.265446,42.391598 39.907631,42.684368 39.270462,43.127983 
	C38.653500,43.530952 38.315884,43.783073 37.988419,44.006817 
	C37.998573,43.978439 38.046089,44.015533 37.867565,44.035706 
	C37.480286,44.406845 37.271530,44.757809 36.861561,45.379040 
	C31.075850,53.570293 26.061443,61.804798 24.531303,71.564453 
	C24.147520,74.012329 24.984276,76.651566 25.197350,79.641525 
	C25.509882,84.685730 25.885159,89.291267 26.116741,94.213638 
	C26.114382,96.275909 25.765013,98.261993 26.482470,99.724876 
	C29.498411,105.874374 32.833229,111.867485 36.045082,118.088188 
	C36.377571,118.502922 36.716293,118.747307 37.026165,119.000114 
	C36.997314,119.008537 37.001919,118.948601 37.070194,119.233810 
	C37.441757,120.014450 37.745045,120.509895 38.018627,121.007385 
	C37.988922,121.009430 38.006046,120.952393 38.148056,121.154343 
	C38.502220,121.613663 38.754234,121.823059 39.020210,121.963341 
	C38.994308,121.942200 39.039509,121.893028 39.039509,121.893028 
z"/>
<path fill="#3B8066" opacity="1.000000" stroke="none" 
	d="
M124.115265,136.433655 
	C126.558022,136.519394 129.704803,133.839951 132.013611,138.124878 
	C136.741516,143.136124 141.230301,147.524811 145.719101,151.913483 
	C150.721634,157.075790 155.724152,162.238098 160.912308,167.683533 
	C156.577713,169.392136 153.361130,166.964310 150.542572,164.070114 
	C141.724960,155.015884 133.040710,145.831772 124.115265,136.433655 
z"/>
<path fill="#3B8165" opacity="1.000000" stroke="none" 
	d="
M65.821724,21.168324 
	C65.569550,21.382467 65.010117,21.627365 64.142204,21.907537 
	C64.393967,21.694902 64.954216,21.446991 65.821724,21.168324 
z"/>
<path fill="#2C496C" opacity="1.000000" stroke="none" 
	d="
M25.260094,79.202858 
	C24.984276,76.651566 24.147520,74.012329 24.531303,71.564453 
	C26.061443,61.804798 31.075850,53.570293 37.072464,45.240990 
	C37.671749,44.560295 37.858917,44.287914 38.046089,44.015533 
	C38.046089,44.015533 37.998573,43.978439 38.285835,43.889469 
	C38.898670,43.526047 39.224243,43.251591 39.549816,42.977135 
	C39.907631,42.684368 40.265446,42.391598 40.714935,41.969231 
	C72.622467,14.067417 120.398346,26.976660 131.845291,66.438660 
	C138.589905,89.689995 129.669678,114.578217 109.806244,127.929581 
	C89.586304,141.520554 63.356297,140.427704 44.110657,125.204124 
	C42.683586,124.075294 41.199230,123.018883 39.390511,121.910919 
	C39.039509,121.893028 38.994308,121.942200 38.962982,121.695007 
	C38.623119,121.282677 38.314583,121.117531 38.006046,120.952393 
	C38.006046,120.952393 37.988922,121.009430 38.040779,120.697952 
	C37.729065,119.907188 37.365494,119.427895 37.001923,118.948601 
	C37.001919,118.948601 36.997314,119.008537 36.910858,118.777550 
	C36.566711,118.336990 36.309017,118.127419 36.051323,117.917847 
	C32.833229,111.867485 29.498411,105.874374 26.482470,99.724876 
	C25.765013,98.261993 26.114382,96.275909 26.457088,94.268127 
	C27.929499,95.824806 29.176445,97.551064 29.867369,99.476822 
	C39.877251,127.376595 70.941811,141.284134 98.416260,130.102951 
	C125.574677,119.050385 138.142670,87.423363 126.008820,60.666935 
	C116.766556,40.286736 94.912865,27.810127 73.232857,30.536316 
	C49.883369,33.472439 32.019958,50.092918 27.760319,72.675919 
	C27.335413,74.928612 26.112593,77.030815 25.260094,79.202858 
z"/>
<path fill="#284567" opacity="1.000000" stroke="none" 
	d="
M145.752014,151.563156 
	C141.230301,147.524811 136.741516,143.136124 132.169556,138.423645 
	C139.035690,139.981277 142.651733,145.344864 145.752014,151.563156 
z"/>
<path fill="#A1DDF6" opacity="1.000000" stroke="none" 
	d="
M25.197350,79.641525 
	C26.112593,77.030815 27.335413,74.928612 27.760319,72.675919 
	C32.019958,50.092918 49.883369,33.472439 73.232857,30.536316 
	C94.912865,27.810127 116.766556,40.286736 126.008820,60.666935 
	C138.142670,87.423363 125.574677,119.050385 98.416260,130.102951 
	C70.941811,141.284134 39.877251,127.376595 29.867369,99.476822 
	C29.176445,97.551064 27.929499,95.824806 26.600780,93.951286 
	C25.885159,89.291267 25.509882,84.685730 25.197350,79.641525 
M59.230850,119.764923 
	C71.557617,116.745598 83.916412,116.762741 96.337646,119.211418 
	C103.403091,120.604279 107.812828,116.207161 106.087753,109.248245 
	C103.769089,99.894783 99.484749,91.477142 92.508759,84.677895 
	C83.625198,76.019402 73.781998,75.828331 64.585312,84.196289 
	C56.956764,91.137421 52.555988,100.064156 50.123711,109.912033 
	C48.657986,115.846489 52.066402,119.632698 59.230850,119.764923 
M84.812088,71.681419 
	C89.946655,75.905220 94.102654,75.630867 98.598175,70.771362 
	C105.512787,63.296875 106.342995,50.400200 100.446838,42.053421 
	C95.556404,35.130371 88.849464,35.033279 84.467430,42.341225 
	C78.832092,51.739315 78.410034,61.496754 84.812088,71.681419 
M57.337021,70.102974 
	C64.698387,77.435463 71.564758,75.961151 74.820801,66.126938 
	C77.323662,58.567570 77.166191,50.825768 72.931252,44.030910 
	C71.046509,41.006893 67.401726,37.995834 64.045876,37.238533 
	C59.534901,36.220554 56.685745,40.334183 54.778717,44.149399 
	C50.363903,52.981686 51.364048,61.465080 57.337021,70.102974 
M38.659603,66.984100 
	C27.525673,74.384537 26.720528,93.420074 37.190666,101.713196 
	C42.000938,105.523285 46.981003,104.763588 50.458809,99.689163 
	C55.903545,91.744820 55.015923,76.460342 48.093384,69.855270 
	C46.048691,67.904335 42.315090,67.723488 38.659603,66.984100 
M105.300591,76.102356 
	C102.952591,82.932327 102.280273,89.986717 105.481110,96.500854 
	C106.990425,99.572517 110.410721,103.269058 113.346375,103.636520 
	C116.286964,104.004593 120.578369,101.297005 122.736641,98.670944 
	C128.024765,92.236725 129.052856,84.510880 126.187286,76.582916 
	C124.390671,71.612373 121.818352,66.631714 115.827705,66.435837 
	C110.238571,66.253082 107.726372,70.893532 105.300591,76.102356 
z"/>
<path fill="#4BA686" opacity="1.000000" stroke="none" 
	d="
M37.867565,44.035706 
	C37.858917,44.287914 37.671749,44.560295 37.273674,44.970726 
	C37.271530,44.757809 37.480286,44.406845 37.867565,44.035706 
z"/>
<path fill="#4BA686" opacity="1.000000" stroke="none" 
	d="
M36.045082,118.088188 
	C36.309017,118.127419 36.566711,118.336990 36.939713,118.769127 
	C36.716293,118.747307 36.377571,118.502922 36.045082,118.088188 
z"/>
<path fill="#4BA686" opacity="1.000000" stroke="none" 
	d="
M37.070198,119.233810 
	C37.365494,119.427895 37.729065,119.907188 38.070480,120.695908 
	C37.745045,120.509895 37.441757,120.014450 37.070198,119.233810 
z"/>
<path fill="#4BA686" opacity="1.000000" stroke="none" 
	d="
M39.270462,43.127983 
	C39.224243,43.251591 38.898670,43.526047 38.275681,43.917847 
	C38.315884,43.783073 38.653500,43.530952 39.270462,43.127983 
z"/>
<path fill="#4BA686" opacity="1.000000" stroke="none" 
	d="
M38.148056,121.154343 
	C38.314583,121.117531 38.623119,121.282677 38.988884,121.716148 
	C38.754234,121.823059 38.502220,121.613663 38.148056,121.154343 
z"/>
<path fill="#2E4568" opacity="1.000000" stroke="none" 
	d="
M58.816963,119.835205 
	C52.066402,119.632698 48.657986,115.846489 50.123711,109.912033 
	C52.555988,100.064156 56.956764,91.137421 64.585312,84.196289 
	C73.781998,75.828331 83.625198,76.019402 92.508759,84.677895 
	C99.484749,91.477142 103.769089,99.894783 106.087753,109.248245 
	C107.812828,116.207161 103.403091,120.604279 96.337646,119.211418 
	C83.916412,116.762741 71.557617,116.745598 58.816963,119.835205 
M65.265709,88.172234 
	C62.103764,92.637817 58.941818,97.103401 55.779873,101.568985 
	C56.396854,101.985352 57.013836,102.401718 57.630817,102.818085 
	C60.617226,98.036140 63.603638,93.254196 66.794266,88.076698 
	C66.478455,87.995888 66.162651,87.915077 65.265709,88.172234 
M63.170357,100.632195 
	C60.251942,103.764702 57.333523,106.897217 53.731613,110.763367 
	C59.849201,110.087540 62.601879,106.475067 65.250908,102.957008 
	C67.849014,99.506561 69.806091,95.555611 72.532280,92.223381 
	C77.316429,86.375702 82.764183,87.057892 85.516113,94.016144 
	C87.459869,98.930931 88.388519,104.246483 89.782547,109.379799 
	C90.223991,111.005379 90.704803,112.620262 91.167595,114.240044 
	C91.705704,114.090645 92.243820,113.941254 92.781929,113.791855 
	C91.246559,104.457298 89.755768,95.068954 85.086594,86.561310 
	C81.561066,80.137482 77.226028,79.824554 72.766937,85.772217 
	C69.381821,90.287369 66.618660,95.268814 63.170357,100.632195 
M71.456696,104.903580 
	C74.103401,103.232620 76.750107,101.561661 79.396805,99.890694 
	C80.875793,102.673271 82.482750,105.397552 83.786705,108.259872 
	C84.594437,110.032913 84.941940,112.015610 85.496033,113.904198 
	C86.041451,113.760735 86.586868,113.617271 87.132294,113.473801 
	C86.256546,109.350578 85.759560,105.095810 84.387383,101.145004 
	C83.252670,97.877884 81.084251,94.969780 79.373848,91.902603 
	C76.837303,94.312973 73.688919,96.339523 71.887566,99.211082 
	C67.732124,105.835320 63.180870,111.795235 55.705997,114.894791 
	C55.584084,114.945351 55.656143,115.463692 55.598446,116.401512 
	C62.834515,115.413132 67.015526,110.585068 71.456696,104.903580 
M95.844711,111.560265 
	C96.221176,113.000740 96.597649,114.441208 96.974113,115.881676 
	C97.508095,115.737999 98.042076,115.594322 98.576057,115.450645 
	C97.499100,106.476128 95.647453,97.695908 90.921455,89.624641 
	C92.516510,96.669022 94.111572,103.713394 95.844711,111.560265 
M68.695831,114.148827 
	C73.194801,114.074692 78.442749,108.485054 77.840363,102.689201 
	C74.767906,106.302879 71.695450,109.916557 68.695831,114.148827 
z"/>
<path fill="#30476B" opacity="1.000000" stroke="none" 
	d="
M84.562279,71.401520 
	C78.410034,61.496754 78.832092,51.739315 84.467430,42.341225 
	C88.849464,35.033279 95.556404,35.130371 100.446838,42.053421 
	C106.342995,50.400200 105.512787,63.296875 98.598175,70.771362 
	C94.102654,75.630867 89.946655,75.905220 84.562279,71.401520 
M97.566208,59.665764 
	C98.313164,60.136211 99.060112,60.606663 100.345200,61.416039 
	C100.345200,56.642578 100.345200,52.422344 100.345200,48.277729 
	C98.470146,49.034603 97.227737,49.536106 95.714096,49.296894 
	C95.112663,46.376953 94.511238,43.457008 93.909805,40.537067 
	C93.416229,40.667858 92.922653,40.798653 92.429077,40.929447 
	C92.663925,44.990562 92.898773,49.051682 93.149307,53.383980 
	C91.107574,53.383980 89.741585,53.383980 87.985039,53.383980 
	C88.128159,55.004288 88.248390,56.365536 88.373360,57.780354 
	C90.052513,57.409199 91.255783,57.143230 93.008865,56.755737 
	C93.008865,61.616890 93.008865,66.030739 93.008865,70.444595 
	C93.338425,70.481491 93.667984,70.518387 93.997543,70.555283 
	C94.978951,66.846130 95.960365,63.136986 97.566208,59.665764 
z"/>
<path fill="#33496B" opacity="1.000000" stroke="none" 
	d="
M57.114918,69.811806 
	C51.364048,61.465080 50.363903,52.981686 54.778717,44.149399 
	C56.685745,40.334183 59.534901,36.220554 64.045876,37.238533 
	C67.401726,37.995834 71.046509,41.006893 72.931252,44.030910 
	C77.166191,50.825768 77.323662,58.567570 74.820801,66.126938 
	C71.564758,75.961151 64.698387,77.435463 57.114918,69.811806 
M63.255531,59.101734 
	C63.860981,58.294720 64.466431,57.487709 65.071884,56.680695 
	C65.584541,57.442154 66.437637,58.157028 66.549339,58.973354 
	C66.971931,62.061630 67.154022,65.182816 67.426102,68.291687 
	C67.783661,68.245956 68.141228,68.200233 68.498795,68.154510 
	C68.498795,60.133404 68.498795,52.112301 68.498795,44.091194 
	C68.223038,44.074776 67.947273,44.058357 67.671516,44.041939 
	C67.085648,47.315475 66.499786,50.589008 65.913925,53.862545 
	C65.240196,53.784176 64.566475,53.705811 63.892754,53.627441 
	C63.892754,49.485401 63.892754,45.343357 63.892754,41.201317 
	C63.464264,41.172325 63.035774,41.143330 62.607281,41.114338 
	C61.821747,44.013000 61.935829,47.940659 60.054260,49.585659 
	C56.649536,52.562290 55.417694,55.528763 56.410980,60.058880 
	C60.254818,58.795456 61.123779,60.901768 61.175175,64.355453 
	C61.205589,66.399223 62.009407,68.431496 62.465446,70.468933 
	C62.971912,70.362503 63.478378,70.256081 63.984844,70.149651 
	C63.740181,66.727959 63.495518,63.306267 63.255531,59.101734 
z"/>
<path fill="#2F476B" opacity="1.000000" stroke="none" 
	d="
M39.007526,66.857788 
	C42.315090,67.723488 46.048691,67.904335 48.093384,69.855270 
	C55.015923,76.460342 55.903545,91.744820 50.458809,99.689163 
	C46.981003,104.763588 42.000938,105.523285 37.190666,101.713196 
	C26.720528,93.420074 27.525673,74.384537 39.007526,66.857788 
M40.526802,99.692955 
	C40.699070,96.968391 40.829498,94.240318 41.058178,91.520500 
	C41.213142,89.677376 41.506161,87.845856 41.737438,86.009148 
	C42.334888,86.043503 42.932339,86.077858 43.529785,86.112213 
	C44.134438,90.315422 44.739086,94.518631 45.343739,98.721840 
	C45.632774,98.667381 45.921810,98.612923 46.210846,98.558464 
	C46.210846,90.006622 46.210846,81.454781 46.210846,72.902939 
	C45.922768,72.899422 45.634693,72.895897 45.346615,72.892380 
	C44.749866,76.282738 44.153122,79.673096 43.556374,83.063461 
	C42.941631,83.011528 42.326885,82.959595 41.712143,82.907669 
	C41.712143,78.674385 41.712143,74.441101 41.712143,70.207817 
	C41.220535,70.168182 40.728928,70.128548 40.237316,70.088913 
	C39.420849,73.324532 38.604382,76.560150 37.462547,81.085159 
	C36.076870,78.678551 35.505161,77.685616 34.933453,76.692680 
	C34.577244,76.752800 34.221031,76.812920 33.864822,76.873039 
	C33.864822,81.471512 33.864822,86.069992 33.864822,91.372726 
	C36.694233,88.503113 38.125870,88.547356 38.610050,91.951912 
	C38.957180,94.392738 39.459217,96.811531 40.526802,99.692955 
z"/>
<path fill="#2F476B" opacity="1.000000" stroke="none" 
	d="
M105.467377,75.748871 
	C107.726372,70.893532 110.238571,66.253082 115.827705,66.435837 
	C121.818352,66.631714 124.390671,71.612373 126.187286,76.582916 
	C129.052856,84.510880 128.024765,92.236725 122.736641,98.670944 
	C120.578369,101.297005 116.286964,104.004593 113.346375,103.636520 
	C110.410721,103.269058 106.990425,99.572517 105.481110,96.500854 
	C102.280273,89.986717 102.952591,82.932327 105.467377,75.748871 
M112.807335,77.457687 
	C112.517258,77.133331 112.227180,76.808983 111.937111,76.484627 
	C111.679504,76.999374 111.421906,77.514114 111.077309,78.958145 
	C111.077309,85.654396 111.077309,92.350647 111.077309,99.046898 
	C111.415726,99.050575 111.754143,99.054253 112.092567,99.057930 
	C112.678101,94.715553 113.263641,90.373169 113.849174,86.030792 
	C114.508774,86.078400 115.168373,86.126007 115.827972,86.173607 
	C115.827972,90.623817 115.827972,95.074028 115.827972,99.524231 
	C116.364319,99.563751 116.900673,99.603271 117.437019,99.642792 
	C118.174942,96.137817 118.912865,92.632851 119.792023,88.457016 
	C121.211998,89.717506 122.034058,90.447243 123.413582,91.671829 
	C123.413582,86.514168 123.413582,81.929825 123.413582,76.638641 
	C121.812233,78.146851 120.965218,78.944595 119.492867,80.331306 
	C118.610878,76.357445 117.908859,73.194420 117.206833,70.031387 
	C116.713249,70.092819 116.219658,70.154243 115.726074,70.215668 
	C115.726074,74.411781 115.726074,78.607895 115.726074,82.804001 
	C115.204399,82.885056 114.682716,82.966110 114.161041,83.047165 
	C113.701904,81.376862 113.242767,79.706551 112.807335,77.457687 
M110.786972,74.116432 
	C110.929848,74.016426 111.072723,73.916412 111.215591,73.816399 
	C111.075737,73.844589 110.935890,73.872787 110.786972,74.116432 
z"/>
<path fill="#7A3C34" opacity="1.000000" stroke="none" 
	d="
M63.374557,100.337486 
	C66.618660,95.268814 69.381821,90.287369 72.766937,85.772217 
	C77.226028,79.824554 81.561066,80.137482 85.086594,86.561310 
	C89.755768,95.068954 91.246559,104.457298 92.781929,113.791855 
	C92.243820,113.941254 91.705704,114.090645 91.167595,114.240044 
	C90.704803,112.620262 90.223991,111.005379 89.782547,109.379799 
	C88.388519,104.246483 87.459869,98.930931 85.516113,94.016144 
	C82.764183,87.057892 77.316429,86.375702 72.532280,92.223381 
	C69.806091,95.555611 67.849014,99.506561 65.250908,102.957008 
	C62.601879,106.475067 59.849201,110.087540 53.731613,110.763367 
	C57.333523,106.897217 60.251942,103.764702 63.374557,100.337486 
z"/>
<path fill="#B56450" opacity="1.000000" stroke="none" 
	d="
M71.229721,105.185822 
	C67.015526,110.585068 62.834515,115.413132 55.598446,116.401512 
	C55.656143,115.463692 55.584084,114.945351 55.705997,114.894791 
	C63.180870,111.795235 67.732124,105.835320 71.887566,99.211082 
	C73.688919,96.339523 76.837303,94.312973 79.373848,91.902603 
	C81.084251,94.969780 83.252670,97.877884 84.387383,101.145004 
	C85.759560,105.095810 86.256546,109.350578 87.132294,113.473801 
	C86.586868,113.617271 86.041451,113.760735 85.496033,113.904198 
	C84.941940,112.015610 84.594437,110.032913 83.786705,108.259872 
	C82.482750,105.397552 80.875793,102.673271 79.396805,99.890701 
	C76.750107,101.561661 74.103401,103.232620 71.229721,105.185822 
z"/>
<path fill="#B18D7E" opacity="1.000000" stroke="none" 
	d="
M95.775673,111.159019 
	C94.111572,103.713394 92.516510,96.669022 90.921455,89.624641 
	C95.647453,97.695908 97.499100,106.476128 98.576057,115.450645 
	C98.042076,115.594322 97.508095,115.737999 96.974113,115.881676 
	C96.597649,114.441208 96.221176,113.000740 95.775673,111.159019 
z"/>
<path fill="#B48F7F" opacity="1.000000" stroke="none" 
	d="
M68.659409,113.839531 
	C71.695450,109.916557 74.767906,106.302879 77.840363,102.689201 
	C78.442749,108.485054 73.194801,114.074692 68.659409,113.839531 
z"/>
<path fill="#B26351" opacity="1.000000" stroke="none" 
	d="
M66.590042,88.472244 
	C63.603638,93.254196 60.617226,98.036140 57.630817,102.818085 
	C57.013836,102.401718 56.396854,101.985352 55.779873,101.568985 
	C58.941818,97.103401 62.103764,92.637817 65.739670,88.165543 
	C66.213638,88.158859 66.590042,88.472244 66.590042,88.472244 
z"/>
<path fill="#B26351" opacity="1.000000" stroke="none" 
	d="
M66.030243,87.996567 
	C66.162651,87.915077 66.478455,87.995888 66.692154,88.274475 
	C66.590042,88.472244 66.213638,88.158859 66.030243,87.996567 
z"/>
<path fill="#B6907F" opacity="1.000000" stroke="none" 
	d="
M96.941772,59.427837 
	C95.960365,63.136986 94.978951,66.846130 93.997543,70.555283 
	C93.667984,70.518387 93.338425,70.481491 93.008865,70.444595 
	C93.008865,66.030739 93.008865,61.616890 93.008865,56.755737 
	C91.255783,57.143230 90.052513,57.409199 88.373360,57.780354 
	C88.248390,56.365536 88.128159,55.004288 87.985039,53.383980 
	C89.741585,53.383980 91.107574,53.383980 93.149307,53.383980 
	C92.898773,49.051682 92.663925,44.990562 92.429077,40.929447 
	C92.922653,40.798653 93.416229,40.667858 93.909805,40.537067 
	C94.511238,43.457008 95.112663,46.376953 95.772095,50.029945 
	C96.200653,53.651276 96.571213,56.539555 96.941772,59.427837 
z"/>
<path fill="#AC8B7E" opacity="1.000000" stroke="none" 
	d="
M97.253990,59.546799 
	C96.571213,56.539555 96.200653,53.651276 95.907715,50.400299 
	C97.227737,49.536106 98.470146,49.034603 100.345200,48.277729 
	C100.345200,52.422344 100.345200,56.642578 100.345200,61.416039 
	C99.060112,60.606663 98.313164,60.136211 97.253990,59.546799 
z"/>
<path fill="#B89180" opacity="1.000000" stroke="none" 
	d="
M63.253197,59.493156 
	C63.495518,63.306267 63.740181,66.727959 63.984844,70.149651 
	C63.478378,70.256081 62.971912,70.362503 62.465446,70.468933 
	C62.009407,68.431496 61.205589,66.399223 61.175175,64.355453 
	C61.123779,60.901768 60.254818,58.795456 56.410980,60.058880 
	C55.417694,55.528763 56.649536,52.562290 60.054260,49.585659 
	C61.935829,47.940659 61.821747,44.013000 62.607281,41.114338 
	C63.035774,41.143330 63.464264,41.172325 63.892754,41.201317 
	C63.892754,45.343357 63.892754,49.485401 63.892754,53.627441 
	C64.566475,53.705811 65.240196,53.784176 65.913925,53.862545 
	C66.499786,50.589008 67.085648,47.315475 67.671516,44.041939 
	C67.947273,44.058357 68.223038,44.074776 68.498795,44.091194 
	C68.498795,52.112301 68.498795,60.133404 68.498795,68.154510 
	C68.141228,68.200233 67.783661,68.245956 67.426102,68.291687 
	C67.154022,65.182816 66.971931,62.061630 66.549339,58.973354 
	C66.437637,58.157028 65.584541,57.442154 65.071884,56.680695 
	C64.466431,57.487709 63.860981,58.294720 63.253197,59.493156 
z"/>
<path fill="#B5907F" opacity="1.000000" stroke="none" 
	d="
M40.209473,99.466553 
	C39.459217,96.811531 38.957180,94.392738 38.610050,91.951912 
	C38.125870,88.547356 36.694233,88.503113 33.864822,91.372726 
	C33.864822,86.069992 33.864822,81.471512 33.864822,76.873039 
	C34.221031,76.812920 34.577244,76.752800 34.933453,76.692680 
	C35.505161,77.685616 36.076870,78.678551 37.462547,81.085159 
	C38.604382,76.560150 39.420849,73.324532 40.237316,70.088913 
	C40.728928,70.128548 41.220535,70.168182 41.712143,70.207817 
	C41.712143,74.441101 41.712143,78.674385 41.712143,82.907669 
	C42.326885,82.959595 42.941631,83.011528 43.556374,83.063461 
	C44.153122,79.673096 44.749866,76.282738 45.346615,72.892380 
	C45.634693,72.895897 45.922768,72.899422 46.210846,72.902939 
	C46.210846,81.454781 46.210846,90.006622 46.210846,98.558464 
	C45.921810,98.612923 45.632774,98.667381 45.343739,98.721840 
	C44.739086,94.518631 44.134438,90.315422 43.529785,86.112213 
	C42.932339,86.077858 42.334888,86.043503 41.737438,86.009148 
	C41.506161,87.845856 41.213142,89.677376 41.058178,91.520500 
	C40.829498,94.240318 40.699070,96.968391 40.209473,99.466553 
z"/>
<path fill="#B48F7F" opacity="1.000000" stroke="none" 
	d="
M112.783630,78.036247 
	C113.242767,79.706551 113.701904,81.376862 114.161041,83.047165 
	C114.682716,82.966110 115.204399,82.885056 115.726074,82.804001 
	C115.726074,78.607895 115.726074,74.411781 115.726074,70.215668 
	C116.219658,70.154243 116.713249,70.092819 117.206833,70.031387 
	C117.908859,73.194420 118.610878,76.357445 119.492867,80.331306 
	C120.965218,78.944595 121.812233,78.146851 123.413582,76.638641 
	C123.413582,81.929825 123.413582,86.514168 123.413582,91.671829 
	C122.034058,90.447243 121.211998,89.717506 119.792023,88.457016 
	C118.912865,92.632851 118.174942,96.137817 117.437019,99.642792 
	C116.900673,99.603271 116.364319,99.563751 115.827972,99.524231 
	C115.827972,95.074028 115.827972,90.623817 115.827972,86.173607 
	C115.168373,86.126007 114.508774,86.078400 113.849174,86.030792 
	C113.263641,90.373169 112.678101,94.715553 112.092567,99.057930 
	C111.754143,99.054253 111.415726,99.050575 111.077309,99.046898 
	C111.077309,92.350647 111.077309,85.654396 111.390686,78.494888 
	C112.063927,78.033180 112.423775,78.034714 112.783630,78.036247 
z"/>
<path fill="#A3857C" opacity="1.000000" stroke="none" 
	d="
M112.795486,77.746964 
	C112.423775,78.034714 112.063927,78.033180 111.434189,78.030243 
	C111.421906,77.514114 111.679504,76.999374 111.937103,76.484627 
	C112.227180,76.808983 112.517258,77.133331 112.795486,77.746964 
z"/>
<path fill="#A3857C" opacity="1.000000" stroke="none" 
	d="
M110.791504,74.008705 
	C110.935890,73.872787 111.075737,73.844589 111.215591,73.816399 
	C111.072723,73.916412 110.929848,74.016426 110.791504,74.008705 
z"/>
</svg>